<svg width="9" height="13" viewBox="0 0 9 13" fill="none" xmlns="http://www.w3.org/2000/svg">
<path d="M3.49974 9.16135C3.50511 8.63313 3.55079 8.20121 3.63677 7.86557C3.72813 7.52444 3.87323 7.21356 4.07206 6.93295C4.27627 6.65233 4.54766 6.3332 4.88621 5.97556C5.13341 5.71695 5.36181 5.47485 5.57139 5.24926C5.78097 5.01817 5.95025 4.77057 6.07923 4.50646C6.2082 4.24235 6.27269 3.92047 6.27269 3.54082C6.27269 2.96859 6.12491 2.5174 5.82934 2.18727C5.53377 1.85163 5.10654 1.68382 4.54766 1.68382C4.08012 1.68382 3.66096 1.81862 3.29015 2.08823C2.91935 2.35234 2.73395 2.77051 2.73395 3.34274H1.22656C1.23731 2.72099 1.38778 2.18727 1.67797 1.74159C1.97354 1.29591 2.37121 0.954771 2.87099 0.718175C3.37076 0.481579 3.92965 0.363281 4.54766 0.363281C5.57408 0.363281 6.36673 0.643895 6.92562 1.20512C7.48989 1.76635 7.77202 2.53116 7.77202 3.49955C7.77202 3.99475 7.67529 4.45144 7.48182 4.86961C7.28836 5.28228 7.03847 5.67018 6.73216 6.03333C6.42585 6.39648 6.10072 6.74312 5.75679 7.07325C5.46122 7.34836 5.26239 7.66474 5.16028 8.02239C5.05818 8.37453 5.00713 8.75418 5.00713 9.16135H3.49974ZM3.43525 11.7777C3.43525 11.5356 3.51049 11.3292 3.66096 11.1587C3.81143 10.9881 4.03176 10.9028 4.32195 10.9028C4.61214 10.9028 4.83247 10.9881 4.98294 11.1587C5.13341 11.3292 5.20865 11.5356 5.20865 11.7777C5.20865 12.0198 5.13341 12.2233 4.98294 12.3884C4.83247 12.5535 4.61214 12.636 4.32195 12.636C4.03176 12.636 3.81143 12.5535 3.66096 12.3884C3.51049 12.2233 3.43525 12.0198 3.43525 11.7777Z" fill="white" stroke="white" stroke-width="0.5"/>
</svg>
