<svg width="20" height="20" viewBox="0 0 20 20" fill="none" xmlns="http://www.w3.org/2000/svg">
<path d="M19.9492 5.88007C19.9023 4.81739 19.7304 4.08681 19.4842 3.45375C19.2302 2.78177 18.8394 2.18015 18.3274 1.68002C17.8272 1.17211 17.2215 0.777437 16.5572 0.527448C15.9203 0.281275 15.1934 0.109427 14.1306 0.0625734C13.0597 0.0117516 12.7198 0 10.0039 0C7.28799 0 6.94805 0.0117516 5.8812 0.0586054C4.81831 0.105459 4.08759 0.27746 3.45456 0.52348C2.7823 0.777437 2.18057 1.16814 1.68034 1.68002C1.17233 2.18015 0.777738 2.78574 0.527549 3.44993C0.281329 4.08681 0.109448 4.81342 0.0625854 5.8761C0.0117538 6.94672 0 7.2866 0 10.002C0 12.7174 0.0117538 13.0572 0.0586166 14.1239C0.105479 15.1866 0.277513 15.9172 0.523733 16.5502C0.777738 17.2222 1.17233 17.8238 1.68034 18.3239C2.18057 18.8319 2.78627 19.2265 3.45059 19.4765C4.08759 19.7227 4.81434 19.8945 5.87738 19.9414C6.94408 19.9884 7.28418 20 10.0001 20C12.716 20 13.0559 19.9884 14.1228 19.9414C15.1857 19.8945 15.9164 19.7227 16.5494 19.4765C17.8938 18.9569 18.9567 17.8942 19.4764 16.5502C19.7225 15.9133 19.8945 15.1866 19.9414 14.1239C19.9882 13.0572 20 12.7174 20 10.002C20 7.2866 19.996 6.94672 19.9492 5.88007ZM18.1478 14.0458C18.1047 15.0225 17.9406 15.55 17.8039 15.9016C17.4677 16.7729 16.7761 17.4644 15.9046 17.8005C15.5529 17.9372 15.0216 18.1013 14.0484 18.1442C12.9933 18.1912 12.6769 18.2028 10.0079 18.2028C7.33882 18.2028 7.01842 18.1912 5.96714 18.1442C4.99019 18.1013 4.46264 17.9372 4.11094 17.8005C3.67727 17.6402 3.28253 17.3863 2.96212 17.0542C2.62996 16.7299 2.37596 16.3391 2.21568 15.9056C2.0789 15.5539 1.91481 15.0225 1.87191 14.0497C1.8249 12.9948 1.8133 12.6783 1.8133 10.0098C1.8133 7.34124 1.8249 7.02089 1.87191 5.96996C1.91481 4.99321 2.0789 4.46576 2.21568 4.11413C2.37596 3.68039 2.62996 3.28587 2.96609 2.96537C3.29031 2.63327 3.68109 2.37932 4.11491 2.21922C4.46661 2.08247 4.99813 1.91841 5.9711 1.87537C7.0262 1.82852 7.34279 1.81677 10.0117 1.81677C12.6847 1.81677 13.0011 1.82852 14.0524 1.87537C15.0293 1.91841 15.5569 2.08247 15.9086 2.21922C16.3423 2.37932 16.737 2.63327 17.0574 2.96537C17.3896 3.28968 17.6436 3.68039 17.8039 4.11413C17.9406 4.46576 18.1047 4.99702 18.1478 5.96996C18.1946 7.02486 18.2064 7.34124 18.2064 10.0098C18.2064 12.6783 18.1946 12.9909 18.1478 14.0458Z" fill="white"/>
<path d="M10.0059 4.86328C7.16896 4.86328 4.86719 7.16446 4.86719 10.001C4.86719 12.8376 7.16896 15.1388 10.0059 15.1388C12.843 15.1388 15.1446 12.8376 15.1446 10.001C15.1446 7.16446 12.843 4.86328 10.0059 4.86328ZM10.0059 13.3337C8.16544 13.3337 6.67255 11.8413 6.67255 10.001C6.67255 8.16075 8.16544 6.6683 10.0059 6.6683C11.8465 6.6683 13.3393 8.16075 13.3393 10.001C13.3393 11.8413 11.8465 13.3337 10.0059 13.3337Z" fill="white"/>
<path d="M16.544 4.66036C16.544 5.32273 16.0068 5.85979 15.3442 5.85979C14.6817 5.85979 14.1445 5.32273 14.1445 4.66036C14.1445 3.99785 14.6817 3.46094 15.3442 3.46094C16.0068 3.46094 16.544 3.99785 16.544 4.66036Z" fill="white"/>
</svg>
