<svg width="206" height="206" viewBox="0 0 206 206" fill="none" xmlns="http://www.w3.org/2000/svg">
<path fill-rule="evenodd" clip-rule="evenodd" d="M160.024 186.418C120.472 213.579 65.9623 209.583 30.8106 174.431C-8.84921 134.772 -8.84921 70.4703 30.8106 30.8105C70.4704 -8.84935 134.772 -8.84935 174.432 30.8105C209.583 65.962 213.579 120.471 186.419 160.024L198.984 197.718C199.244 198.5 198.501 199.244 197.719 198.983L160.024 186.418Z" fill="white"/>
<path d="M160.024 186.418L159.458 185.594L159.869 185.312L160.341 185.47L160.024 186.418ZM186.419 160.024L185.47 160.34L185.313 159.868L185.595 159.458L186.419 160.024ZM197.719 198.983L198.035 198.035L198.035 198.035L197.719 198.983ZM31.5177 173.724C66.3226 208.529 120.296 212.487 159.458 185.594L160.591 187.243C120.648 214.671 65.6021 210.637 30.1035 175.139L31.5177 173.724ZM31.5177 31.5176C-7.75158 70.7869 -7.75158 134.455 31.5177 173.724L30.1035 175.139C-9.94684 135.088 -9.94685 70.1537 30.1035 30.1034L31.5177 31.5176ZM173.724 31.5176C134.455 -7.75172 70.787 -7.75172 31.5177 31.5176L30.1035 30.1034C70.1539 -9.94698 135.088 -9.94698 175.139 30.1034L173.724 31.5176ZM185.595 159.458C212.487 120.295 208.529 66.3222 173.724 31.5176L175.139 30.1034C210.637 65.6018 214.671 120.647 187.243 160.59L185.595 159.458ZM187.368 159.708L199.933 197.402L198.035 198.035L185.47 160.34L187.368 159.708ZM199.933 197.402C200.454 198.966 198.966 200.453 197.403 199.932L198.035 198.035L198.035 198.035L199.933 197.402ZM197.403 199.932L159.708 187.367L160.341 185.47L198.035 198.035L197.403 199.932Z" fill="#E6427A"/>
</svg>
