<svg width="23" height="21" viewBox="0 0 23 21" fill="none" xmlns="http://www.w3.org/2000/svg">
<path d="M3.20246 15.4128L7.71308 15.4128L15.0777 20.8161C15.8545 21.3482 16.421 20.6015 16.4639 20.1465L16.4639 0.85947C16.494 0.348753 15.7773 -0.337925 15.0348 0.189958L7.66587 5.54605L3.20246 5.54605C1.50722 5.54605 0.168201 6.93228 0.168201 8.62752L0.1682 12.3313C0.163909 14.0308 1.55014 15.4128 3.20246 15.4128ZM14.6786 18.4041L8.82893 14.1553L8.82893 6.89365L14.6786 2.60192L14.6786 18.4041ZM1.86344 8.67043C1.86344 7.91079 2.3999 7.33141 3.11233 7.33141L7.04357 7.33141L7.04356 13.7175L3.11662 13.7175C2.44711 13.7175 1.86773 13.1381 1.86773 12.3785L1.86773 8.67043L1.86344 8.67043Z" fill="white"/>
<path d="M21.9048 4.3439C24.2266 10.2365 21.9949 16.3093 21.9048 16.5796C21.7245 17.026 21.2353 17.2492 20.7889 17.1161C20.3426 16.9359 20.1194 16.4466 20.2525 16.0003C20.2525 15.9573 22.3082 10.2837 20.2525 5.0177C20.0722 4.57136 20.2954 4.0821 20.7417 3.90185C21.3082 3.63147 21.7889 4.03489 21.9048 4.3439Z" fill="white"/>
</svg>
