<svg width="18" height="20" viewBox="0 0 18 20" fill="none" xmlns="http://www.w3.org/2000/svg">
<path d="M9.00468 0.0168759C10.0807 0 11.1505 0.0100005 12.2191 0C12.2839 1.27569 12.7365 2.57514 13.6577 3.47706C14.5771 4.40148 15.8775 4.82463 17.1429 4.96776V8.32357C15.9571 8.28419 14.7658 8.03418 13.6898 7.51665C13.2211 7.30164 12.7846 7.02475 12.3573 6.74161C12.3517 9.17674 12.3671 11.6087 12.3418 14.0339C12.2777 15.1989 11.8985 16.3584 11.2301 17.3184C10.1547 18.9166 8.28817 19.9586 6.37109 19.9911C5.1952 20.0592 4.02053 19.7342 3.01852 19.1354C1.35796 18.1428 0.189463 16.3259 0.019275 14.3758C-0.000456846 13.9589 -0.0072397 13.5426 0.00940908 13.1357C0.157398 11.55 0.931258 10.033 2.13244 9.00111C3.49394 7.79917 5.40115 7.22664 7.18688 7.5654C7.20353 8.79984 7.15482 10.033 7.15482 11.2675C6.33903 11 5.38573 11.075 4.67292 11.5769C4.15249 11.9188 3.75723 12.4425 3.55128 13.0351C3.3811 13.4576 3.42981 13.927 3.43967 14.3758C3.63514 15.7433 4.93251 16.8928 6.31745 16.7684C7.2356 16.7584 8.11551 16.2184 8.59401 15.4277C8.74878 15.1508 8.92206 14.8677 8.9313 14.542C9.01208 13.0513 8.98002 11.5669 8.98988 10.0762C8.99667 6.71661 8.98002 3.36643 9.0053 0.0175009L9.00468 0.0168759Z" fill="white"/>
</svg>
