<svg width="231" height="231" viewBox="0 0 231 231" fill="none" xmlns="http://www.w3.org/2000/svg">
<path fill-rule="evenodd" clip-rule="evenodd" d="M179.871 209.529C135.43 240.046 74.183 235.556 34.6864 196.06C-9.87553 151.498 -9.87553 79.2486 34.6864 34.6866C79.2484 -9.87538 151.498 -9.87538 196.06 34.6866C235.556 74.1831 240.046 135.43 209.529 179.871L223.725 222.46C223.985 223.242 223.242 223.985 222.46 223.725L179.871 209.529Z" fill="white"/>
<path d="M179.871 209.529L179.305 208.704L179.716 208.423L180.188 208.58L179.871 209.529ZM209.529 179.871L208.58 180.188L208.423 179.716L208.704 179.305L209.529 179.871ZM223.725 222.46L222.776 222.776L222.776 222.776L223.725 222.46ZM222.46 223.725L222.776 222.776L222.776 222.776L222.46 223.725ZM35.3936 195.353C74.5432 234.502 135.254 238.954 179.305 208.704L180.438 210.353C135.606 241.138 73.8228 236.61 33.9793 196.767L35.3936 195.353ZM35.3936 35.3937C-8.77789 79.5652 -8.7779 151.181 35.3936 195.353L33.9793 196.767C-10.9732 151.814 -10.9732 78.932 33.9793 33.9795L35.3936 35.3937ZM195.353 35.3937C151.181 -8.77775 79.565 -8.77775 35.3936 35.3937L33.9793 33.9795C78.9318 -10.973 151.814 -10.973 196.767 33.9795L195.353 35.3937ZM208.704 179.305C238.954 135.254 234.502 74.5433 195.353 35.3937L196.767 33.9795C236.61 73.8229 241.138 135.606 210.353 180.438L208.704 179.305ZM210.477 179.555L224.673 222.144L222.776 222.776L208.58 180.188L210.477 179.555ZM224.673 222.144C225.195 223.707 223.707 225.195 222.144 224.673L222.776 222.776L222.776 222.776L224.673 222.144ZM222.144 224.673L179.555 210.477L180.188 208.58L222.776 222.776L222.144 224.673Z" fill="#E6427A"/>
</svg>
