<svg width="15" height="15" viewBox="0 0 15 15" fill="none" xmlns="http://www.w3.org/2000/svg">
<path d="M7.5 15C11.6421 15 15 11.6421 15 7.5C15 3.35786 11.6421 0 7.5 0C3.35786 0 0 3.35786 0 7.5C0 11.6421 3.35786 15 7.5 15Z" fill="#F0F0F0"/>
<path d="M1.55044 2.93433C0.961313 3.70082 0.517085 4.58427 0.258423 5.544H4.16012L1.55044 2.93433Z" fill="#0052B4"/>
<path d="M14.7416 5.54397C14.4829 4.58427 14.0387 3.70082 13.4496 2.93433L10.84 5.54397H14.7416Z" fill="#0052B4"/>
<path d="M0.258423 9.45728C0.517114 10.417 0.961343 11.3004 1.55044 12.0669L4.16003 9.45728H0.258423Z" fill="#0052B4"/>
<path d="M12.0662 1.55035C11.2997 0.961221 10.4163 0.516992 9.45654 0.258301V4.15997L12.0662 1.55035Z" fill="#0052B4"/>
<path d="M2.93384 13.4497C3.70033 14.0388 4.58378 14.483 5.54349 14.7417V10.8401L2.93384 13.4497Z" fill="#0052B4"/>
<path d="M5.54346 0.258301C4.58375 0.516992 3.7003 0.961221 2.93384 1.55032L5.54346 4.15994V0.258301Z" fill="#0052B4"/>
<path d="M9.45654 14.7417C10.4163 14.483 11.2997 14.0388 12.0662 13.4497L9.45654 10.8401V14.7417Z" fill="#0052B4"/>
<path d="M10.84 9.45728L13.4496 12.0669C14.0387 11.3005 14.4829 10.417 14.7416 9.45728H10.84Z" fill="#0052B4"/>
<path d="M14.9365 6.52175H8.47831H8.47828V0.0634863C8.15804 0.0217969 7.83155 0 7.5 0C7.16839 0 6.84196 0.0217969 6.52175 0.0634863V6.52169V6.52172H0.0634863C0.0217969 6.84196 0 7.16845 0 7.5C0 7.83161 0.0217969 8.15804 0.0634863 8.47825H6.52169H6.52172V14.9365C6.84196 14.9782 7.16839 15 7.5 15C7.83155 15 8.15804 14.9782 8.47825 14.9365V8.47831V8.47828H14.9365C14.9782 8.15804 15 7.83161 15 7.5C15 7.16845 14.9782 6.84196 14.9365 6.52175Z" fill="#D80027"/>
<path d="M9.45654 9.4573L12.8033 12.8041C12.9572 12.6502 13.1041 12.4893 13.2442 12.3226L10.3789 9.45728H9.45654V9.4573Z" fill="#D80027"/>
<path d="M5.54344 9.45728H5.54338L2.19666 12.804C2.35052 12.9579 2.51139 13.1048 2.67815 13.2449L5.54344 10.3795V9.45728Z" fill="#D80027"/>
<path d="M5.54348 5.54313V5.54308L2.19672 2.19629C2.04279 2.35016 1.89596 2.51103 1.75586 2.67778L4.62118 5.5431H5.54348V5.54313Z" fill="#D80027"/>
<path d="M9.45654 5.54351L12.8033 2.19669C12.6495 2.04276 12.4886 1.89593 12.3218 1.75586L9.45654 4.62118V5.54351Z" fill="#D80027"/>
</svg>
