<svg width="156" height="51" viewBox="0 0 156 51" fill="none" xmlns="http://www.w3.org/2000/svg">
<path d="M37.591 30.0975C37.5305 34.2004 38.1114 38.8177 43.5396 38.8177C48.3928 38.8177 51.9693 35.5862 52.7801 30.854H53.706C52.7801 36.1671 48.8527 39.7435 43.5396 39.7435C36.7861 39.7435 32.0479 34.5453 32.0479 26.9266C32.0479 21.3229 36.5501 14.1035 42.8497 14.1035C49.6636 14.1035 53.1856 21.7223 53.1856 24.155C53.1856 24.4999 53.0101 24.6754 52.6652 24.6754H37.591V30.1036V30.0975ZM47.6364 22.1278C47.6364 18.4303 46.6561 15.0294 42.8437 15.0294C38.8013 15.0294 37.591 18.4364 37.591 22.1278V23.7495H47.237C47.5275 23.7495 47.6425 23.574 47.6425 23.3441V22.1278H47.6364Z" fill="#FE889F"/>
<path d="M59.0198 16.3002H54.457V15.3743H59.0198C61.7914 15.3743 62.8322 15.3743 63.8731 14.1035V19.9916H63.9881C65.4888 17.22 68.3754 14.1035 72.5932 14.1035C78.7718 14.1035 80.5025 17.22 80.5025 20.627V38.1217H85.0653V39.0476H71.0925V38.1217H75.6553V19.2412C75.6553 16.0642 74.094 15.0233 72.2483 15.0233C67.4011 15.0233 64.9139 19.8706 63.8791 21.8373V38.1217H68.2665V39.0476H54.4631V38.1217H59.0259V16.3002H59.0198Z" fill="#FE889F"/>
<path d="M90.4687 30.0975C90.4082 34.2004 90.9891 38.8177 96.4173 38.8177C101.271 38.8177 104.847 35.5862 105.658 30.854H106.584C105.658 36.1671 101.73 39.7435 96.4234 39.7435C89.6699 39.7435 84.9316 34.5453 84.9316 26.9266C84.9316 21.3229 89.4339 14.1035 95.7335 14.1035C102.547 14.1035 106.069 21.7223 106.069 24.155C106.069 24.4999 105.894 24.6754 105.549 24.6754H90.4748V30.1036L90.4687 30.0975ZM100.514 22.1278C100.514 18.4303 99.5338 15.0294 95.7214 15.0294C91.679 15.0294 90.4627 18.4364 90.4627 22.1278V23.7495H100.103C100.393 23.7495 100.508 23.574 100.508 23.3441V22.1278H100.514Z" fill="#FE889F"/>
<path d="M142.941 16.2997H137.918V15.3738C143.927 15.4888 146.118 12.9472 147.098 7.28906H147.794V15.3738H155.764V16.2997H147.794V35.7007C147.794 38.0668 148.774 38.8172 150.626 38.8172C153.513 38.8172 154.783 36.1606 155.134 35.1802L156 35.3557C155.594 36.7415 153.924 39.743 149.646 39.743C145.603 39.743 142.947 38.4117 142.947 34.6053V16.2997H142.941Z" fill="#FE889F"/>
<path d="M129.84 16.3002H127.891V15.3743H129.84C131.692 15.3743 133.537 15.2593 134.693 14.1035V38.1278H139.31V39.0537H125.223V38.1278H129.84V16.3002Z" fill="#FE889F"/>
<path d="M120.067 16.7967C116.43 27.2476 113.35 37.9647 110.693 42.588C106.681 49.6016 104.182 50.9269 100.69 50.7998C98.8083 50.7333 97.4225 49.1296 97.471 47.6833C97.5254 46.1281 98.7841 45.1357 100.055 45.1841C101.55 45.2325 102.518 46.1523 102.476 47.3868C102.421 48.8936 101.368 48.8513 101.35 49.4746C101.338 49.8376 101.665 50.0071 102.161 50.0192C103.105 50.0555 105.289 49.3535 106.935 45.1054C109.072 39.5744 111.886 27.0116 115.044 17.4745L115.323 16.6515C117.138 10.8058 120.237 6.30952 123.323 3.51375C126.137 1.03265 128.503 -0.0747624 130.942 0.00390656C132.932 0.0704726 134.73 1.49862 134.663 3.41693C134.615 4.81481 133.798 6.08562 131.91 6.11588C130.088 6.14613 129.175 4.45173 129.217 3.31405C129.265 1.91617 130.161 1.68621 130.179 1.2263C130.191 0.80875 129.749 0.796647 129.417 0.784544C126.094 0.669567 122.754 8.53646 121.949 10.9994L120.073 16.7967H120.067Z" fill="#FE889F"/>
<path d="M110.094 15.3456L110.091 16.2715L125.443 16.3304L125.447 15.4046L110.094 15.3456Z" fill="#FE889F"/>
<path d="M4.00607 2.5825H0V1.63242H4.00607C5.86386 1.63242 7.72166 1.50534 8.88354 0.167969V19.9078H8.99852C10.0454 17.1786 12.8291 13.9834 17.0106 13.9834C23.9759 13.9834 28.5629 21.1847 28.5629 26.8731C28.5629 33.6628 23.8609 39.7627 16.6052 39.7627C12.4842 39.7627 9.75495 36.6885 8.99852 34.8307H8.88354V39.0667H0V38.1348H4.00607V2.5825ZM8.88354 30.6492C8.88354 36.1681 13.1801 38.8368 16.6052 38.8368C22.2936 38.8368 22.9895 35.5266 22.9895 26.8791C22.9895 18.9214 22.1181 14.9154 17.0106 14.9154C12.1937 14.9154 8.88354 19.6779 8.88354 23.9139V30.6492Z" fill="#FE889F"/>
<path d="M6.86183 45.8681C6.32325 45.5595 6.04488 45.4687 5.68784 45.4687C5.05244 45.4687 4.58043 45.8984 4.58043 46.4733C4.58043 47.8712 7.08573 47.2055 7.08573 49.0452C7.08573 49.8561 6.41402 50.4854 5.56076 50.4854C5.13111 50.4854 4.67725 50.3341 4.21129 50.0255V49.5474C4.79828 49.971 5.12506 50.1102 5.53656 50.1102C6.15986 50.1102 6.64398 49.6564 6.64398 49.0633C6.64398 47.5686 4.13867 48.2222 4.13867 46.4914C4.13867 45.7169 4.81644 45.0996 5.65154 45.0996C6.05698 45.0996 6.46243 45.2085 6.86788 45.4324V45.8802L6.86183 45.8681Z" fill="#FE889F"/>
<path d="M15.0442 50.4122H14.6206L13.7855 48.5968H11.2196L10.3845 50.4122H9.96094L12.3876 45.1172H12.6115L15.0381 50.4122H15.0442ZM12.5025 45.7828L11.377 48.2518H13.6342L12.5025 45.7828Z" fill="#FE889F"/>
<path d="M22.959 50.4128H22.6201L18.6262 45.8258V50.4128H18.2207V45.1602H18.5656L22.5475 49.7472V45.1602H22.959V50.4128Z" fill="#FE889F"/>
<path d="M34.0878 45.499H31.7943V47.496H33.8639V47.8288H31.7943V50.4128H31.3828V45.1602H34.0878V45.499Z" fill="#FE889F"/>
<path d="M38.6559 45.1603C39.9449 45.1603 40.3987 45.8139 40.3987 46.5159C40.3987 47.121 40.0659 47.5507 39.4003 47.7988C39.6484 47.9259 39.8541 48.2284 40.1022 48.5976L41.2883 50.413H40.8102L39.8904 48.9728C39.2611 47.9743 39.0553 47.8896 38.426 47.8896H37.7179V50.407H37.3125V45.1543H38.662L38.6559 45.1603ZM37.7179 47.5567H38.5894C39.5152 47.5567 39.957 47.1573 39.957 46.528C39.957 45.9349 39.5334 45.5053 38.5712 45.5053H37.7179V47.5628V47.5567Z" fill="#FE889F"/>
<path d="M48.7629 50.4122H48.3393L47.5042 48.5968H44.9384L44.1033 50.4122H43.6797L46.1063 45.1172H46.3302L48.7569 50.4122H48.7629ZM46.2213 45.7828L45.0957 48.2518H47.3529L46.2213 45.7828Z" fill="#FE889F"/>
<path d="M56.6717 50.4128H56.3328L52.3449 45.8258V50.4128H51.9395V45.1602H52.2844L56.2662 49.7472V45.1602H56.6717V50.4128Z" fill="#FE889F"/>
<path d="M64.7985 45.9775C64.145 45.6265 63.5519 45.4691 62.9286 45.4691C61.6215 45.4691 60.6351 46.4616 60.6351 47.7989C60.6351 49.1363 61.6155 50.1106 62.9831 50.1106C63.5761 50.1106 64.1389 49.9472 64.853 49.566V49.9896C64.2478 50.3163 63.5943 50.4797 62.9891 50.4797C61.3855 50.4797 60.1934 49.336 60.1934 47.7929C60.1934 46.2498 61.5065 45.0879 62.9528 45.0879C63.5398 45.0879 64.1571 45.2331 64.7985 45.5296V45.9775Z" fill="#FE889F"/>
<path d="M68.5812 45.1602H68.1758V50.4128H68.5812V45.1602Z" fill="#FE889F"/>
<path d="M74.8025 45.8681C74.2639 45.5595 73.9855 45.4687 73.6224 45.4687C72.9931 45.4687 72.515 45.8984 72.515 46.4733C72.515 47.8712 75.0203 47.2055 75.0203 49.0452C75.0203 49.8561 74.3486 50.4854 73.4953 50.4854C73.0657 50.4854 72.6118 50.3341 72.1459 50.0255V49.5474C72.7329 49.971 73.0596 50.1102 73.4711 50.1102C74.0944 50.1102 74.5785 49.6564 74.5785 49.0633C74.5785 47.5686 72.0732 48.2222 72.0732 46.4914C72.0732 45.7169 72.751 45.0996 73.5861 45.0996C73.9916 45.0996 74.397 45.2085 74.8025 45.4324V45.8802V45.8681Z" fill="#FE889F"/>
<path d="M82.8561 45.9775C82.2026 45.6265 81.6095 45.4691 80.9862 45.4691C79.6791 45.4691 78.6927 46.4616 78.6927 47.7989C78.6927 49.1363 79.6731 50.1106 81.0407 50.1106C81.6337 50.1106 82.1965 49.9472 82.9106 49.566V49.9896C82.2994 50.3163 81.6519 50.4797 81.0467 50.4797C79.4431 50.4797 78.251 49.336 78.251 47.7929C78.251 46.2498 79.5641 45.0879 81.0104 45.0879C81.5914 45.0879 82.2147 45.2331 82.8561 45.5296V45.9775Z" fill="#FE889F"/>
<path d="M88.7931 50.4797C87.2378 50.4797 86.0215 49.2937 86.0215 47.7868C86.0215 46.28 87.2378 45.0879 88.7931 45.0879C90.3483 45.0879 91.5828 46.274 91.5828 47.7868C91.5828 49.2997 90.3543 50.4797 88.7931 50.4797ZM88.8112 45.4691C87.492 45.4691 86.4632 46.4797 86.4632 47.7868C86.4632 49.094 87.492 50.1045 88.8112 50.1045C90.1304 50.1045 91.1471 49.094 91.1471 47.7868C91.1471 46.4797 90.1304 45.4691 88.8112 45.4691Z" fill="#FE889F"/>
</svg>
